<svg width="135" height="69" viewBox="0 0 135 69" fill="none" xmlns="http://www.w3.org/2000/svg">
<ellipse cx="31.5" cy="31" rx="31.5" ry="31" fill="#5F5A5A"/>
<path d="M32.0005 26.8575C24.2457 26.8575 13.2507 38.9141 13.2507 46.5246C13.2507 49.9523 15.8688 52 20.2565 52C25.026 52 28.1753 49.5368 32.0005 49.5368C35.8588 49.5368 39.017 52 43.7445 52C48.1322 52 50.7503 49.9523 50.7503 46.5246C50.7503 38.9141 39.7553 26.8575 32.0005 26.8575ZM17.6178 25.6191C16.6022 22.216 13.4733 20.0121 10.6296 20.6957C7.7859 21.3792 6.30447 24.6919 7.32008 28.095C8.3357 31.4981 11.4646 33.702 14.3083 33.0184C17.152 32.3349 18.6334 29.0221 17.6178 25.6191V25.6191ZM25.8912 23.5782C28.9126 22.7788 30.4243 18.6735 29.2681 14.4091C28.1119 10.1447 24.7252 7.33677 21.7037 8.13623C18.6823 8.93568 17.1706 13.041 18.3268 17.3054C19.483 21.5698 22.8707 24.3786 25.8912 23.5782ZM53.3704 20.6967C50.5267 20.0131 47.3988 22.217 46.3822 25.6201C45.3666 29.0231 46.848 32.3358 49.6917 33.0194C52.5354 33.703 55.6633 31.4991 56.6799 28.096C57.6955 24.6929 56.2141 21.3802 53.3704 20.6967V20.6967ZM38.1098 23.5782C41.1313 24.3777 44.5179 21.5698 45.6742 17.3054C46.8304 13.041 45.3187 8.93666 42.2973 8.13623C39.2758 7.33579 35.8891 10.1447 34.7329 14.4091C33.5766 18.6735 35.0883 22.7788 38.1098 23.5782V23.5782Z" fill="#ADADAD" fill-opacity="0.43"/>
<path d="M15.3516 39.8516C15.2227 40.7656 15.0352 41.5449 14.7891 42.1895C14.543 42.8223 14.2441 43.3438 13.8926 43.7539C13.541 44.1523 13.1367 44.4395 12.6797 44.6152C12.2344 44.8027 11.7422 44.8965 11.2031 44.8965C10.4414 44.8965 9.72656 44.6738 9.05859 44.2285C8.40234 43.7832 7.83398 43.1211 7.35352 42.2422C6.87305 41.3633 6.49219 40.2734 6.21094 38.9727C5.94141 37.6719 5.80664 36.166 5.80664 34.4551C5.80664 32.6621 5.97656 30.9219 6.31641 29.2344C6.66797 27.5469 7.16016 25.9648 7.79297 24.4883C8.4375 23.0117 9.20508 21.6641 10.0957 20.4453C10.998 19.2148 12 18.166 13.1016 17.2988C14.2148 16.4199 15.416 15.7402 16.7051 15.2598C17.9941 14.7676 19.3418 14.5215 20.748 14.5215C21.9551 14.5215 23.0566 14.7031 24.0527 15.0664C25.0488 15.4297 25.9043 15.9336 26.6191 16.5781C27.334 17.2227 27.8848 17.9844 28.2715 18.8633C28.6582 19.7422 28.8516 20.6914 28.8516 21.7109C28.8516 22.9414 28.6816 24.0898 28.3418 25.1562C28.002 26.2109 27.5273 27.1777 26.918 28.0566C26.3203 28.9355 25.6055 29.7207 24.7734 30.4121C23.9414 31.1035 23.0332 31.6895 22.0488 32.1699C21.0762 32.6504 20.0449 33.0254 18.9551 33.2949C17.877 33.5527 16.7812 33.6992 15.668 33.7344C15.6328 35.1992 15.5918 36.4355 15.5449 37.4434C15.5098 38.4395 15.4453 39.2422 15.3516 39.8516ZM12.293 32.4863C12.3516 32.5098 12.4219 32.5332 12.5039 32.5566C12.5742 32.5801 12.6562 32.6035 12.75 32.627C12.8555 32.6504 12.9785 32.6738 13.1191 32.6973C13.0957 31.2324 13.0664 29.8906 13.0312 28.6719C13.0078 27.4414 12.9785 26.3691 12.9434 25.4551C12.8965 24.3887 12.8555 23.4277 12.8203 22.5723C12.9023 22.502 12.9961 22.4434 13.1016 22.3965C13.1953 22.3496 13.3066 22.3086 13.4355 22.2734C13.5645 22.2383 13.7227 22.2207 13.9102 22.2207C14.4492 22.2207 14.8828 22.3203 15.2109 22.5195C15.5391 22.707 15.7031 23.0293 15.7031 23.4863C15.7031 25.4199 15.7031 27.1543 15.7031 28.6895C15.7031 30.2246 15.6914 31.6074 15.668 32.8379C17.2031 32.8379 18.5918 32.5449 19.834 31.959C21.0879 31.373 22.1543 30.5938 23.0332 29.6211C23.9121 28.6367 24.5918 27.5059 25.0723 26.2285C25.5527 24.9512 25.793 23.6152 25.793 22.2207C25.793 21.3301 25.6699 20.4863 25.4238 19.6895C25.1895 18.8809 24.8262 18.1777 24.334 17.5801C23.8418 16.9707 23.2207 16.4902 22.4707 16.1387C21.7324 15.7754 20.8594 15.5938 19.8516 15.5938C18.832 15.5938 17.8242 15.7871 16.8281 16.1738C15.8438 16.5605 14.9004 17.1406 13.998 17.9141C13.1074 18.6875 12.2812 19.6484 11.5195 20.7969C10.7695 21.9453 10.1133 23.2871 9.55078 24.8223C9 26.3574 8.56641 28.0801 8.25 29.9902C7.94531 31.8887 7.79297 33.9805 7.79297 36.2656C7.79297 37.25 7.83984 38.2109 7.93359 39.1484C8.03906 40.0742 8.20898 40.9004 8.44336 41.627C8.67773 42.3418 8.98828 42.916 9.375 43.3496C9.77344 43.7832 10.2656 44 10.8516 44C11.168 44 11.4668 43.9355 11.748 43.8066C12.0293 43.6777 12.2754 43.4141 12.4863 43.0156C12.6973 42.6055 12.8672 42.0254 12.9961 41.2754C13.125 40.5137 13.1895 39.5 13.1895 38.2344C13.1895 37.4375 13.1836 36.6523 13.1719 35.8789C13.1602 35.0938 13.1543 34.332 13.1543 33.5938C12.9785 33.5703 12.8262 33.541 12.6973 33.5059C12.5684 33.4707 12.457 33.4414 12.3633 33.418C12.2578 33.3828 12.1699 33.3477 12.0996 33.3125L12.293 32.4863ZM36.498 14.5215C36.6621 14.9668 36.8613 15.6348 37.0957 16.5254C37.3301 17.4043 37.5879 18.4238 37.8691 19.584C38.1504 20.7441 38.4434 22.0039 38.748 23.3633C39.0645 24.7227 39.375 26.1055 39.6797 27.5117C39.9961 28.918 40.3008 30.3066 40.5938 31.6777C40.8984 33.0488 41.1797 34.3203 41.4375 35.4922C41.6953 36.6641 41.9238 37.707 42.123 38.6211C42.334 39.5234 42.498 40.2148 42.6152 40.6953C42.873 40.0391 43.1719 39.2305 43.5117 38.2695C43.8633 37.3086 44.2383 36.2598 44.6367 35.123C45.0469 33.9746 45.4688 32.7617 45.9023 31.4844C46.3477 30.1953 46.793 28.9004 47.2383 27.5996C47.6953 26.2871 48.1523 24.9922 48.6094 23.7148C49.0664 22.4375 49.5059 21.2305 49.9277 20.0938C50.3496 18.9453 50.748 17.8965 51.123 16.9473C51.5098 15.9863 51.8555 15.1777 52.1602 14.5215L53.6016 14.6973C53.3906 15.4355 53.1797 16.2969 52.9688 17.2812C52.7578 18.2539 52.5527 19.3145 52.3535 20.4629C52.166 21.5996 51.9844 22.8008 51.8086 24.0664C51.6328 25.3203 51.4805 26.5859 51.3516 27.8633C51.2227 29.1406 51.1172 30.4062 51.0352 31.6602C50.9648 32.9141 50.9297 34.1094 50.9297 35.2461C50.9297 37.4609 51.0879 39.1426 51.4043 40.291C51.7207 41.4395 52.2129 42.0137 52.8809 42.0137C53.1738 42.0137 53.4551 41.8965 53.7246 41.6621C54.0059 41.4277 54.2988 41.0762 54.6035 40.6074C54.9199 40.1387 55.2539 39.5586 55.6055 38.8672C55.9688 38.1641 56.3789 37.3555 56.8359 36.4414L57.0117 36.0723L57.7324 36.6172L57.5566 36.9863C56.9707 38.1582 56.4434 39.1836 55.9746 40.0625C55.5176 40.9297 55.0723 41.6562 54.6387 42.2422C54.2168 42.8281 53.7891 43.2676 53.3555 43.5605C52.9336 43.8535 52.4707 44 51.9668 44C51.2637 44 50.6777 43.8301 50.209 43.4902C49.7402 43.1387 49.3594 42.6465 49.0664 42.0137C48.7852 41.3691 48.5801 40.5898 48.4512 39.6758C48.334 38.7617 48.2754 37.7305 48.2754 36.582C48.2754 35.3281 48.3398 34.0156 48.4688 32.6445C48.5977 31.2617 48.75 29.9199 48.9258 28.6191C49.1133 27.3184 49.3008 26.1172 49.4883 25.0156C49.6875 23.9023 49.8574 22.9824 49.998 22.2559L42.0703 44.8965L40.6289 44.5449C40.6289 44.2988 40.5527 43.7773 40.4004 42.9805C40.248 42.1719 40.0488 41.1992 39.8027 40.0625C39.5566 38.9141 39.2754 37.6543 38.959 36.2832C38.6543 34.9004 38.3379 33.5117 38.0098 32.1172C37.248 28.8359 36.3809 25.1914 35.4082 21.1836C35.4434 22.0273 35.4844 22.877 35.5312 23.7324C35.5664 24.4707 35.5957 25.2617 35.6191 26.1055C35.6543 26.9375 35.6719 27.7168 35.6719 28.4434C35.6719 30.5645 35.5488 32.4453 35.3027 34.0859C35.0684 35.7266 34.7461 37.1562 34.3359 38.375C33.9258 39.582 33.4453 40.6016 32.8945 41.4336C32.3438 42.2656 31.7578 42.9336 31.1367 43.4375C30.5156 43.9414 29.877 44.3047 29.2207 44.5273C28.5762 44.75 27.9434 44.8613 27.3223 44.8613C26.7012 44.8613 26.1211 44.7559 25.582 44.5449C25.0312 44.3457 24.5566 44.0645 24.1582 43.7012C23.748 43.3262 23.4258 42.8926 23.1914 42.4004C22.9453 41.8965 22.8223 41.3516 22.8223 40.7656C22.8223 40.0742 22.9395 39.4121 23.1738 38.7793C23.3965 38.1465 23.7129 37.5547 24.123 37.0039C24.5215 36.4414 24.9961 35.9199 25.5469 35.4395C26.0977 34.959 26.6895 34.5137 27.3223 34.1035L27.8496 34.6484C27.4043 34.9648 26.9941 35.3223 26.6191 35.7207C26.2441 36.1074 25.9219 36.5293 25.6523 36.9863C25.3828 37.4316 25.1719 37.9004 25.0195 38.3926C24.8672 38.873 24.791 39.3594 24.791 39.8516C24.791 40.3086 24.8672 40.7363 25.0195 41.1348C25.1602 41.5332 25.3711 41.8848 25.6523 42.1895C25.9219 42.4941 26.25 42.7344 26.6367 42.9102C27.0117 43.0859 27.4395 43.1738 27.9199 43.1738C28.4121 43.1738 28.9219 43.0742 29.4492 42.875C29.9766 42.6641 30.4863 42.3242 30.9785 41.8555C31.4824 41.375 31.957 40.748 32.4023 39.9746C32.8594 39.1895 33.252 38.2285 33.5801 37.0918C33.9199 35.9434 34.1895 34.6016 34.3887 33.0664C34.5879 31.5312 34.6875 29.7617 34.6875 27.7578C34.6875 27.1836 34.6699 26.5098 34.6348 25.7363C34.6113 24.9629 34.5703 24.1543 34.5117 23.3105C34.4648 22.4668 34.4062 21.623 34.3359 20.7793C34.2656 19.9238 34.1895 19.1328 34.1074 18.4062C34.0371 17.668 33.9551 17.0234 33.8613 16.4727C33.7793 15.9102 33.6973 15.5 33.6152 15.2422L36.498 14.5215Z" fill="black"/>
</svg>
