<svg width="387" height="129" viewBox="0 0 387 129" fill="none" xmlns="http://www.w3.org/2000/svg">
<path d="M26.9766 91.4766C26.6185 94.0156 26.0977 96.1803 25.4141 97.9707C24.7305 99.7285 23.9004 101.177 22.9238 102.316C21.9473 103.423 20.8242 104.221 19.5547 104.709C18.3177 105.23 16.9505 105.49 15.4531 105.49C13.3372 105.49 11.3516 104.872 9.49609 103.635C7.67318 102.398 6.0944 100.559 4.75977 98.1172C3.42513 95.6758 2.36719 92.6484 1.58594 89.0352C0.83724 85.4219 0.462891 81.2389 0.462891 76.4863C0.462891 71.5059 0.934896 66.6719 1.87891 61.9844C2.85547 57.2969 4.22266 52.9023 5.98047 48.8008C7.77083 44.6992 9.90299 40.9557 12.377 37.5703C14.8835 34.1523 17.6667 31.2389 20.7266 28.8301C23.819 26.3887 27.1556 24.5007 30.7363 23.166C34.3171 21.7988 38.0605 21.1152 41.9668 21.1152C45.3197 21.1152 48.3796 21.6198 51.1465 22.6289C53.9134 23.638 56.2897 25.0378 58.2754 26.8281C60.2611 28.6185 61.791 30.7344 62.8652 33.1758C63.9395 35.6172 64.4766 38.2539 64.4766 41.0859C64.4766 44.5039 64.0046 47.694 63.0605 50.6562C62.1165 53.5859 60.7982 56.2715 59.1055 58.7129C57.4453 61.1543 55.4596 63.3353 53.1484 65.2559C50.8372 67.1764 48.3145 68.804 45.5801 70.1387C42.8783 71.4733 40.0137 72.515 36.9863 73.2637C33.9915 73.9798 30.9479 74.3867 27.8555 74.4844C27.7578 78.5534 27.6439 81.9876 27.5137 84.7871C27.416 87.554 27.237 89.7839 26.9766 91.4766ZM18.4805 71.0176C18.6432 71.0827 18.8385 71.1478 19.0664 71.2129C19.2617 71.278 19.4896 71.3431 19.75 71.4082C20.043 71.4733 20.3848 71.5384 20.7754 71.6035C20.7103 67.5345 20.6289 63.8073 20.5312 60.4219C20.4661 57.0039 20.3848 54.0254 20.2871 51.4863C20.1569 48.5241 20.043 45.8548 19.9453 43.4785C20.1732 43.2832 20.4336 43.1204 20.7266 42.9902C20.987 42.86 21.2962 42.7461 21.6543 42.6484C22.0124 42.5508 22.4518 42.502 22.9727 42.502C24.4701 42.502 25.6745 42.7786 26.5859 43.332C27.4974 43.8529 27.9531 44.748 27.9531 46.0176C27.9531 51.3887 27.9531 56.2064 27.9531 60.4707C27.9531 64.735 27.9206 68.5762 27.8555 71.9941C32.1198 71.9941 35.9772 71.1803 39.4277 69.5527C42.9108 67.9251 45.873 65.7604 48.3145 63.0586C50.7559 60.3242 52.6439 57.1829 53.9785 53.6348C55.3132 50.0866 55.9805 46.3757 55.9805 42.502C55.9805 40.028 55.6387 37.6842 54.9551 35.4707C54.304 33.2246 53.2949 31.2715 51.9277 29.6113C50.5605 27.9186 48.8353 26.584 46.752 25.6074C44.7012 24.5983 42.276 24.0938 39.4766 24.0938C36.6445 24.0938 33.8451 24.6309 31.0781 25.7051C28.3438 26.7793 25.7233 28.3906 23.2168 30.5391C20.7428 32.6875 18.4479 35.3568 16.332 38.5469C14.2487 41.737 12.4258 45.4642 10.8633 49.7285C9.33333 53.9928 8.12891 58.778 7.25 64.084C6.40365 69.3574 5.98047 75.168 5.98047 81.5156C5.98047 84.25 6.11068 86.9193 6.37109 89.5234C6.66406 92.0951 7.13607 94.39 7.78711 96.4082C8.43815 98.3939 9.30078 99.9889 10.375 101.193C11.4818 102.398 12.849 103 14.4766 103C15.3555 103 16.1855 102.821 16.9668 102.463C17.748 102.105 18.4316 101.372 19.0176 100.266C19.6035 99.1263 20.0755 97.515 20.4336 95.4316C20.7917 93.3158 20.9707 90.5 20.9707 86.9844C20.9707 84.7708 20.9544 82.5898 20.9219 80.4414C20.8893 78.2604 20.873 76.1445 20.873 74.0938C20.3848 74.0286 19.9616 73.9473 19.6035 73.8496C19.2454 73.752 18.9362 73.6706 18.6758 73.6055C18.3828 73.5078 18.1387 73.4102 17.9434 73.3125L18.4805 71.0176ZM74.877 97.4824C76.0163 97.4824 77.1719 97.1895 78.3438 96.6035C79.5482 96.0176 80.7526 95.1061 81.957 93.8691C83.194 92.6322 84.4635 91.0371 85.7656 89.084C87.0677 87.0983 88.4023 84.7383 89.7695 82.0039L90.2578 80.9785L92.2598 82.4922L91.7715 83.5176C90.0137 87.0007 88.2559 89.9792 86.498 92.4531C84.7728 94.9271 83.0638 96.9453 81.3711 98.5078C79.7109 100.07 78.0671 101.21 76.4395 101.926C74.8118 102.642 73.2493 103 71.752 103C69.6361 103 67.748 102.561 66.0879 101.682C64.4277 100.803 63.028 99.6146 61.8887 98.1172C60.7493 96.5872 59.8867 94.8294 59.3008 92.8438C58.6823 90.8255 58.373 88.7096 58.373 86.4961C58.373 82.9805 58.8613 79.7904 59.8379 76.9258C60.7819 74.0286 62.0514 71.5547 63.6465 69.5039C65.2741 67.4531 67.1133 65.8581 69.1641 64.7188C71.2148 63.5794 73.347 63.0098 75.5605 63.0098C77.8066 63.0098 79.5156 63.5794 80.6875 64.7188C81.8919 65.8581 82.4941 67.2904 82.4941 69.0156C82.4941 70.6758 82.0221 72.2383 81.0781 73.7031C80.1341 75.1354 78.8483 76.5514 77.2207 77.9512C75.6257 79.3184 73.7702 80.6855 71.6543 82.0527C69.5384 83.3874 67.3086 84.7708 64.9648 86.2031C65.1927 87.8958 65.5833 89.4421 66.1367 90.8418C66.6901 92.209 67.39 93.3971 68.2363 94.4062C69.0827 95.3828 70.0592 96.1478 71.166 96.7012C72.2728 97.222 73.5098 97.4824 74.877 97.4824ZM76.3906 70.4805C76.3906 69.1784 76.0326 68.153 75.3164 67.4043C74.6328 66.6556 73.7865 66.2812 72.7773 66.2812C71.931 66.2812 71.0358 66.5905 70.0918 67.209C69.1478 67.7949 68.2852 68.7552 67.5039 70.0898C66.7227 71.3919 66.0716 73.0684 65.5508 75.1191C65.0299 77.1699 64.7695 79.6602 64.7695 82.5898V83.7129C65.8763 83.127 67.097 82.362 68.4316 81.418C69.7988 80.4414 71.0684 79.3672 72.2402 78.1953C73.4121 77.0234 74.3887 75.7865 75.1699 74.4844C75.9837 73.1497 76.3906 71.8151 76.3906 70.4805ZM90.0625 86.9844C90.0625 83.5339 90.1927 80.0671 90.4531 76.584C90.7135 73.1009 91.0553 69.569 91.4785 65.9883H87.0352L87.5723 63.0098H91.8691C92.3249 59.6895 92.7806 56.3691 93.2363 53.0488C93.7246 49.696 94.1641 46.3431 94.5547 42.9902H99.5352C99.4701 43.7064 99.3724 44.748 99.2422 46.1152C99.1445 47.4499 99.0143 49.0124 98.8516 50.8027C98.7214 52.5605 98.5911 54.4974 98.4609 56.6133C98.3307 58.6966 98.2005 60.8288 98.0703 63.0098H107.543L107.055 65.9883H97.875C97.7448 67.8438 97.6309 69.6667 97.5332 71.457C97.4355 73.2474 97.3379 74.9564 97.2402 76.584C97.1751 78.179 97.1263 79.6602 97.0938 81.0273C97.0612 82.362 97.0449 83.5176 97.0449 84.4941C97.0449 86.9681 97.11 89.0352 97.2402 90.6953C97.403 92.3555 97.6309 93.6901 97.9238 94.6992C98.2493 95.7083 98.64 96.4245 99.0957 96.8477C99.584 97.2708 100.137 97.4824 100.756 97.4824C101.57 97.4824 102.465 97.0755 103.441 96.2617C104.451 95.4154 105.492 94.2923 106.566 92.8926C107.641 91.4928 108.731 89.8652 109.838 88.0098C110.945 86.1217 112.019 84.1198 113.061 82.0039L113.549 80.9785L115.551 82.4922L115.062 83.5176C113.565 86.5449 112.068 89.263 110.57 91.6719C109.105 94.0807 107.657 96.1315 106.225 97.8242C104.792 99.4844 103.393 100.77 102.025 101.682C100.658 102.561 99.3398 103 98.0703 103C96.8008 103 95.6615 102.707 94.6523 102.121C93.6758 101.535 92.8457 100.607 92.1621 99.3379C91.4785 98.0358 90.9577 96.3757 90.5996 94.3574C90.2415 92.3392 90.0625 89.8815 90.0625 86.9844ZM161.889 21.1152C162.344 22.3522 162.898 24.2077 163.549 26.6816C164.2 29.123 164.916 31.9551 165.697 35.1777C166.479 38.4004 167.292 41.8997 168.139 45.6758C169.018 49.4518 169.88 53.293 170.727 57.1992C171.605 61.1055 172.452 64.9629 173.266 68.7715C174.112 72.5801 174.893 76.112 175.609 79.3672C176.326 82.6224 176.96 85.5195 177.514 88.0586C178.1 90.5651 178.555 92.4857 178.881 93.8203C179.597 91.9974 180.427 89.7513 181.371 87.082C182.348 84.4128 183.389 81.4993 184.496 78.3418C185.635 75.1517 186.807 71.7826 188.012 68.2344C189.249 64.6536 190.486 61.0566 191.723 57.4434C192.992 53.7975 194.262 50.2005 195.531 46.6523C196.801 43.1042 198.021 39.7513 199.193 36.5938C200.365 33.4036 201.472 30.4902 202.514 27.8535C203.588 25.1842 204.548 22.9382 205.395 21.1152L209.398 21.6035C208.812 23.6543 208.227 26.0469 207.641 28.7812C207.055 31.4831 206.485 34.429 205.932 37.6191C205.411 40.7767 204.906 44.1133 204.418 47.6289C203.93 51.112 203.507 54.6276 203.148 58.1758C202.79 61.724 202.497 65.2396 202.27 68.7227C202.074 72.2057 201.977 75.526 201.977 78.6836C201.977 84.8359 202.416 89.5072 203.295 92.6973C204.174 95.8874 205.541 97.4824 207.396 97.4824C208.21 97.4824 208.992 97.1569 209.74 96.5059C210.521 95.8548 211.335 94.8783 212.182 93.5762C213.061 92.2741 213.988 90.6628 214.965 88.7422C215.974 86.7891 217.113 84.543 218.383 82.0039L218.871 80.9785L220.873 82.4922L220.385 83.5176C218.757 86.7728 217.292 89.6211 215.99 92.0625C214.721 94.4714 213.484 96.4896 212.279 98.1172C211.107 99.7448 209.919 100.965 208.715 101.779C207.543 102.593 206.257 103 204.857 103C202.904 103 201.277 102.528 199.975 101.584C198.673 100.607 197.615 99.2402 196.801 97.4824C196.02 95.6921 195.45 93.5273 195.092 90.9883C194.766 88.4492 194.604 85.5846 194.604 82.3945C194.604 78.9115 194.783 75.2656 195.141 71.457C195.499 67.6159 195.922 63.8887 196.41 60.2754C196.931 56.6621 197.452 53.3255 197.973 50.2656C198.526 47.1732 198.998 44.6178 199.389 42.5996L177.367 105.49L173.363 104.514C173.363 103.83 173.152 102.382 172.729 100.168C172.305 97.9219 171.752 95.2201 171.068 92.0625C170.385 88.8724 169.604 85.373 168.725 81.5645C167.878 77.7233 166.999 73.8659 166.088 69.9922C163.972 60.8776 161.563 50.7539 158.861 39.6211C158.959 41.9648 159.073 44.3249 159.203 46.7012C159.301 48.752 159.382 50.9492 159.447 53.293C159.545 55.6042 159.594 57.7689 159.594 59.7871C159.594 65.679 159.252 70.9036 158.568 75.4609C157.917 80.0182 157.022 83.9896 155.883 87.375C154.743 90.7279 153.409 93.5599 151.879 95.8711C150.349 98.1823 148.721 100.038 146.996 101.438C145.271 102.837 143.497 103.846 141.674 104.465C139.883 105.083 138.126 105.393 136.4 105.393C134.675 105.393 133.064 105.1 131.566 104.514C130.036 103.96 128.718 103.179 127.611 102.17C126.472 101.128 125.577 99.9238 124.926 98.5566C124.242 97.1569 123.9 95.6432 123.9 94.0156C123.9 92.0951 124.226 90.2559 124.877 88.498C125.495 86.7402 126.374 85.0964 127.514 83.5664C128.62 82.0039 129.939 80.5553 131.469 79.2207C132.999 77.8861 134.643 76.6491 136.4 75.5098L137.865 77.0234C136.628 77.9023 135.489 78.8952 134.447 80.002C133.406 81.0762 132.51 82.248 131.762 83.5176C131.013 84.7546 130.427 86.0566 130.004 87.4238C129.581 88.7585 129.369 90.1094 129.369 91.4766C129.369 92.7461 129.581 93.9342 130.004 95.041C130.395 96.1478 130.98 97.1243 131.762 97.9707C132.51 98.8171 133.422 99.4844 134.496 99.9727C135.538 100.461 136.726 100.705 138.061 100.705C139.428 100.705 140.844 100.428 142.309 99.875C143.773 99.2891 145.189 98.3451 146.557 97.043C147.956 95.7083 149.275 93.9668 150.512 91.8184C151.781 89.6374 152.872 86.9681 153.783 83.8105C154.727 80.6204 155.476 76.8932 156.029 72.6289C156.583 68.3646 156.859 63.4492 156.859 57.8828C156.859 56.2878 156.811 54.416 156.713 52.2676C156.648 50.1191 156.534 47.873 156.371 45.5293C156.241 43.1855 156.078 40.8418 155.883 38.498C155.688 36.1217 155.476 33.9245 155.248 31.9062C155.053 29.8555 154.825 28.0651 154.564 26.5352C154.337 24.9727 154.109 23.8333 153.881 23.1172L161.889 21.1152ZM274.877 103C272.891 103 271.166 102.577 269.701 101.73C268.269 100.884 267.081 99.7448 266.137 98.3125C265.193 96.8477 264.493 95.1712 264.037 93.2832C263.581 91.3952 263.354 89.3932 263.354 87.2773C263.354 85.4219 263.533 83.5339 263.891 81.6133C264.249 79.6927 264.753 77.8372 265.404 76.0469C266.088 74.224 266.934 72.5312 267.943 70.9688C268.952 69.3737 270.108 67.9902 271.41 66.8184C272.712 65.6465 274.161 64.7188 275.756 64.0352C277.383 63.3516 279.125 63.0098 280.98 63.0098C283.096 63.0098 284.887 63.4818 286.352 64.4258C287.849 65.3698 289.053 66.5254 289.965 67.8926C289.997 61.7402 290.307 56.304 290.893 51.584C291.479 46.8639 292.292 42.9089 293.334 39.7188C294.408 36.5286 295.678 34.1198 297.143 32.4922C298.607 30.832 300.219 30.002 301.977 30.002C302.595 30.002 303.148 30.0833 303.637 30.2461C304.158 30.3763 304.581 30.6367 304.906 31.0273C305.264 31.418 305.525 31.9551 305.688 32.6387C305.883 33.2897 305.98 34.1361 305.98 35.1777C305.98 37.3262 305.769 39.8001 305.346 42.5996C304.923 45.3665 304.32 48.3939 303.539 51.6816C302.758 54.9368 301.798 58.4199 300.658 62.1309C299.551 65.8092 298.314 69.6341 296.947 73.6055C296.98 77.0885 297.029 80.0996 297.094 82.6387C297.159 85.1777 297.24 87.3262 297.338 89.084C297.468 90.8418 297.615 92.2741 297.777 93.3809C297.973 94.4876 298.184 95.3503 298.412 95.9688C298.673 96.5547 298.965 96.9616 299.291 97.1895C299.649 97.3848 300.04 97.4824 300.463 97.4824C301.212 97.4824 301.96 97.1569 302.709 96.5059C303.49 95.8223 304.32 94.8294 305.199 93.5273C306.078 92.1927 307.022 90.5651 308.031 88.6445C309.073 86.724 310.212 84.5104 311.449 82.0039L311.986 80.9785L313.988 82.4922L313.451 83.5176C311.563 87.3262 309.903 90.4837 308.471 92.9902C307.038 95.4642 305.72 97.4499 304.516 98.9473C303.344 100.445 302.221 101.503 301.146 102.121C300.072 102.707 298.949 103 297.777 103C296.638 103 295.645 102.723 294.799 102.17C293.985 101.584 293.285 100.689 292.699 99.4844C292.113 98.2474 291.641 96.6849 291.283 94.7969C290.925 92.8763 290.648 90.5814 290.453 87.9121C289.314 90.1908 288.142 92.2578 286.938 94.1133C285.733 95.9688 284.48 97.5638 283.178 98.8984C281.908 100.201 280.574 101.21 279.174 101.926C277.774 102.642 276.342 103 274.877 103ZM281.957 65.5C280.167 65.5 278.604 66.0534 277.27 67.1602C275.935 68.2344 274.828 69.6504 273.949 71.4082C273.07 73.1335 272.419 75.0866 271.996 77.2676C271.573 79.4486 271.361 81.6296 271.361 83.8105C271.361 85.6009 271.492 87.3262 271.752 88.9863C272.045 90.6139 272.468 92.0625 273.021 93.332C273.607 94.6016 274.307 95.6107 275.121 96.3594C275.935 97.1081 276.879 97.4824 277.953 97.4824C278.995 97.4824 280.004 97.222 280.98 96.7012C281.99 96.1803 282.982 95.3503 283.959 94.2109C284.936 93.0391 285.928 91.5417 286.938 89.7188C287.947 87.8633 289.021 85.6172 290.16 82.9805C290.095 81.418 290.046 79.7578 290.014 78C289.981 76.2096 289.965 74.3053 289.965 72.2871C289.249 70.1712 288.158 68.5111 286.693 67.3066C285.261 66.1022 283.682 65.5 281.957 65.5ZM302.465 36.9844C302.465 35.487 302.286 34.4453 301.928 33.8594C301.602 33.2734 301.212 32.9805 300.756 32.9805C299.975 32.9805 299.34 33.7454 298.852 35.2754C298.363 36.7728 297.973 38.8073 297.68 41.3789C297.419 43.9505 297.224 46.929 297.094 50.3145C296.996 53.6999 296.947 57.2643 296.947 61.0078V66.3789C297.956 63.0911 298.819 60.1289 299.535 57.4922C300.251 54.8555 300.821 52.3978 301.244 50.1191C301.667 47.8405 301.977 45.6432 302.172 43.5273C302.367 41.4115 302.465 39.2305 302.465 36.9844ZM326.439 97.4824C327.579 97.4824 328.734 97.1895 329.906 96.6035C331.111 96.0176 332.315 95.1061 333.52 93.8691C334.757 92.6322 336.026 91.0371 337.328 89.084C338.63 87.0983 339.965 84.7383 341.332 82.0039L341.82 80.9785L343.822 82.4922L343.334 83.5176C341.576 87.0007 339.818 89.9792 338.061 92.4531C336.335 94.9271 334.626 96.9453 332.934 98.5078C331.273 100.07 329.63 101.21 328.002 101.926C326.374 102.642 324.812 103 323.314 103C321.199 103 319.311 102.561 317.65 101.682C315.99 100.803 314.59 99.6146 313.451 98.1172C312.312 96.5872 311.449 94.8294 310.863 92.8438C310.245 90.8255 309.936 88.7096 309.936 86.4961C309.936 82.9805 310.424 79.7904 311.4 76.9258C312.344 74.0286 313.614 71.5547 315.209 69.5039C316.837 67.4531 318.676 65.8581 320.727 64.7188C322.777 63.5794 324.91 63.0098 327.123 63.0098C329.369 63.0098 331.078 63.5794 332.25 64.7188C333.454 65.8581 334.057 67.2904 334.057 69.0156C334.057 70.6758 333.585 72.2383 332.641 73.7031C331.697 75.1354 330.411 76.5514 328.783 77.9512C327.188 79.3184 325.333 80.6855 323.217 82.0527C321.101 83.3874 318.871 84.7708 316.527 86.2031C316.755 87.8958 317.146 89.4421 317.699 90.8418C318.253 92.209 318.952 93.3971 319.799 94.4062C320.645 95.3828 321.622 96.1478 322.729 96.7012C323.835 97.222 325.072 97.4824 326.439 97.4824ZM327.953 70.4805C327.953 69.1784 327.595 68.153 326.879 67.4043C326.195 66.6556 325.349 66.2812 324.34 66.2812C323.493 66.2812 322.598 66.5905 321.654 67.209C320.71 67.7949 319.848 68.7552 319.066 70.0898C318.285 71.3919 317.634 73.0684 317.113 75.1191C316.592 77.1699 316.332 79.6602 316.332 82.5898V83.7129C317.439 83.127 318.66 82.362 319.994 81.418C321.361 80.4414 322.631 79.3672 323.803 78.1953C324.975 77.0234 325.951 75.7865 326.732 74.4844C327.546 73.1497 327.953 71.8151 327.953 70.4805ZM352.318 96.7988C352.904 96.7988 353.572 96.4245 354.32 95.6758C355.102 94.8945 355.932 93.8366 356.811 92.502C357.689 91.1673 358.617 89.6048 359.594 87.8145C360.57 86.0241 361.579 84.0872 362.621 82.0039L363.109 80.9785L365.111 82.4922L364.623 83.5176C362.898 86.9681 361.352 89.9303 359.984 92.4043C358.65 94.8457 357.396 96.8639 356.225 98.459C355.053 100.021 353.93 101.177 352.855 101.926C351.814 102.642 350.74 103 349.633 103C348.168 103 346.898 102.528 345.824 101.584C344.783 100.607 343.904 98.9961 343.188 96.75C342.504 94.4714 341.999 91.4766 341.674 87.7656C341.316 84.0547 341.137 79.4648 341.137 73.9961C341.137 66.2487 341.462 59.6081 342.113 54.0742C342.764 48.5078 343.643 43.9505 344.75 40.4023C345.889 36.8216 347.191 34.2012 348.656 32.541C350.154 30.8483 351.716 30.002 353.344 30.002C354.32 30.002 355.134 30.4089 355.785 31.2227C356.469 32.0039 356.811 33.4362 356.811 35.5195C356.811 37.1471 356.68 39.0026 356.42 41.0859C356.16 43.1693 355.818 45.3991 355.395 47.7754C354.971 50.1517 354.467 52.6257 353.881 55.1973C353.295 57.7363 352.676 60.2754 352.025 62.8145C351.374 65.321 350.707 67.7949 350.023 70.2363C349.34 72.6452 348.673 74.9076 348.021 77.0234C348.217 81.0273 348.428 84.3151 348.656 86.8867C348.917 89.4258 349.21 91.4277 349.535 92.8926C349.893 94.3574 350.3 95.3828 350.756 95.9688C351.212 96.5221 351.732 96.7988 352.318 96.7988ZM353.637 36.6914C353.637 36.0078 353.555 35.4707 353.393 35.0801C353.23 34.6895 352.969 34.4941 352.611 34.4941C352.253 34.4941 351.895 34.9987 351.537 36.0078C351.179 37.0169 350.821 38.3841 350.463 40.1094C350.137 41.8346 349.828 43.8366 349.535 46.1152C349.275 48.3939 349.031 50.819 348.803 53.3906C348.575 55.9297 348.396 58.5339 348.266 61.2031C348.135 63.8724 348.054 66.444 348.021 68.918C348.803 66.0534 349.519 63.1237 350.17 60.1289C350.854 57.1016 351.456 54.1719 351.977 51.3398C352.497 48.5078 352.904 45.8385 353.197 43.332C353.49 40.793 353.637 38.5794 353.637 36.6914ZM373.607 96.7988C374.193 96.7988 374.861 96.4245 375.609 95.6758C376.391 94.8945 377.221 93.8366 378.1 92.502C378.979 91.1673 379.906 89.6048 380.883 87.8145C381.859 86.0241 382.868 84.0872 383.91 82.0039L384.398 80.9785L386.4 82.4922L385.912 83.5176C384.187 86.9681 382.641 89.9303 381.273 92.4043C379.939 94.8457 378.686 96.8639 377.514 98.459C376.342 100.021 375.219 101.177 374.145 101.926C373.103 102.642 372.029 103 370.922 103C369.457 103 368.188 102.528 367.113 101.584C366.072 100.607 365.193 98.9961 364.477 96.75C363.793 94.4714 363.288 91.4766 362.963 87.7656C362.605 84.0547 362.426 79.4648 362.426 73.9961C362.426 66.2487 362.751 59.6081 363.402 54.0742C364.053 48.5078 364.932 43.9505 366.039 40.4023C367.178 36.8216 368.48 34.2012 369.945 32.541C371.443 30.8483 373.005 30.002 374.633 30.002C375.609 30.002 376.423 30.4089 377.074 31.2227C377.758 32.0039 378.1 33.4362 378.1 35.5195C378.1 37.1471 377.969 39.0026 377.709 41.0859C377.449 43.1693 377.107 45.3991 376.684 47.7754C376.26 50.1517 375.756 52.6257 375.17 55.1973C374.584 57.7363 373.965 60.2754 373.314 62.8145C372.663 65.321 371.996 67.7949 371.312 70.2363C370.629 72.6452 369.962 74.9076 369.311 77.0234C369.506 81.0273 369.717 84.3151 369.945 86.8867C370.206 89.4258 370.499 91.4277 370.824 92.8926C371.182 94.3574 371.589 95.3828 372.045 95.9688C372.501 96.5221 373.021 96.7988 373.607 96.7988ZM374.926 36.6914C374.926 36.0078 374.844 35.4707 374.682 35.0801C374.519 34.6895 374.258 34.4941 373.9 34.4941C373.542 34.4941 373.184 34.9987 372.826 36.0078C372.468 37.0169 372.11 38.3841 371.752 40.1094C371.426 41.8346 371.117 43.8366 370.824 46.1152C370.564 48.3939 370.32 50.819 370.092 53.3906C369.864 55.9297 369.685 58.5339 369.555 61.2031C369.424 63.8724 369.343 66.444 369.311 68.918C370.092 66.0534 370.808 63.1237 371.459 60.1289C372.143 57.1016 372.745 54.1719 373.266 51.3398C373.786 48.5078 374.193 45.8385 374.486 43.332C374.779 40.793 374.926 38.5794 374.926 36.6914Z" fill="#1F1818"/>
<path d="M236.001 73.2862C227.005 73.2862 214.251 87.5349 214.251 96.5291C214.251 100.58 217.288 103 222.378 103C227.91 103 231.563 100.089 236.001 100.089C240.476 100.089 244.14 103 249.624 103C254.713 103 257.75 100.58 257.75 96.5291C257.75 87.5349 244.996 73.2862 236.001 73.2862ZM219.317 71.8225C218.139 67.8007 214.509 65.1961 211.21 66.004C207.912 66.8118 206.193 70.7268 207.371 74.7487C208.549 78.7705 212.179 81.3751 215.478 80.5672C218.776 79.7594 220.495 75.8444 219.317 71.8225V71.8225ZM228.914 69.4106C232.419 68.4658 234.172 63.6141 232.831 58.5744C231.49 53.5346 227.561 50.2162 224.056 51.161C220.551 52.1058 218.798 56.9575 220.139 61.9973C221.48 67.037 225.41 70.3566 228.914 69.4106ZM260.79 66.0051C257.491 65.1973 253.863 67.8019 252.683 71.8237C251.505 75.8455 253.224 79.7605 256.522 80.5684C259.821 81.3762 263.449 78.7716 264.629 74.7498C265.807 70.728 264.088 66.813 260.79 66.0051V66.0051ZM243.087 69.4106C246.592 70.3554 250.521 67.037 251.862 61.9973C253.203 56.9575 251.45 52.107 247.945 51.161C244.44 50.215 240.511 53.5346 239.17 58.5744C237.829 63.6141 239.582 68.4658 243.087 69.4106V69.4106Z" fill="#1F1818"/>
</svg>
